<?xml version="1.0" standalone="no"?>
<!DOCTYPE svg PUBLIC "-//W3C//DTD SVG 20010904//EN"
 "http://www.w3.org/TR/2001/REC-SVG-20010904/DTD/svg10.dtd">
<svg version="1.0" xmlns="http://www.w3.org/2000/svg"
 width="512.000000pt" height="512.000000pt" viewBox="0 0 512.000000 512.000000"
 preserveAspectRatio="xMidYMid meet">

<g transform="translate(0.000000,512.000000) scale(0.100000,-0.100000)"
fill="#000000" stroke="none">
<path d="M3143 5037 c-67 -67 -83 -89 -83 -113 0 -62 55 -98 108 -70 16 8 58
46 95 85 56 59 67 77 67 105 0 25 -7 40 -26 55 -48 37 -70 29 -161 -62z"/>
<path d="M895 5006 c-91 -29 -162 -84 -213 -164 -58 -91 -62 -123 -62 -482 0
-314 1 -327 20 -348 14 -14 33 -22 55 -22 22 0 41 8 55 22 18 20 20 35 20 160
l0 138 980 0 980 0 0 -1211 c0 -666 -4 -1209 -8 -1207 -5 2 -83 50 -175 107
l-167 104 0 251 c0 276 -8 332 -60 440 -50 106 -157 219 -265 282 -17 9 -14
14 30 55 63 58 111 133 138 219 l22 70 136 0 c123 0 139 2 163 21 34 27 36 79
4 109 -20 18 -35 20 -163 20 l-140 0 -19 66 c-34 119 -136 243 -245 298 -279
142 -612 1 -702 -296 l-21 -68 -139 0 c-135 0 -141 -1 -164 -25 -30 -29 -32
-64 -6 -96 18 -23 27 -24 167 -29 l148 -5 8 -39 c15 -72 70 -167 134 -230 l61
-62 -50 -29 c-65 -39 -163 -138 -205 -208 -18 -30 -45 -88 -60 -129 l-26 -73
-4 -452 -3 -453 -175 0 -174 0 0 965 0 966 -25 24 c-31 32 -69 32 -101 0 l-24
-24 2 -1183 3 -1183 32 -67 c40 -86 106 -151 191 -191 66 -31 69 -31 252 -35
l185 -4 27 -47 c78 -140 167 -212 403 -326 209 -102 319 -175 464 -307 61 -57
164 -151 228 -210 74 -67 127 -108 146 -112 16 -3 85 -6 153 -6 113 0 125 2
148 23 36 32 39 74 6 107 -18 18 -33 20 -141 20 l-120 0 -254 230 -254 229
-197 101 c-223 113 -343 189 -400 252 l-38 43 544 6 545 5 93 -84 c106 -97
137 -107 179 -58 26 30 28 51 10 82 -7 11 -249 240 -539 508 -367 340 -530
496 -537 518 -43 123 59 240 180 208 22 -6 224 -126 449 -266 236 -147 418
-254 432 -254 30 1 55 20 68 54 7 18 10 326 10 914 l1 887 44 -48 c24 -26 57
-71 74 -100 29 -52 254 -672 330 -910 67 -212 76 -268 75 -477 -1 -173 -3
-197 -38 -370 -63 -304 -60 -429 11 -573 33 -66 70 -106 447 -484 l410 -413
-555 0 c-517 0 -557 -1 -571 -17 -37 -42 -28 -101 19 -122 17 -8 218 -11 669
-11 l645 0 24 25 c16 15 25 35 25 56 0 30 -44 77 -468 503 -445 448 -470 474
-500 542 -61 135 -65 235 -18 466 45 219 56 311 56 449 0 207 -43 414 -130
624 -23 55 -86 228 -142 385 -55 157 -115 317 -134 355 -45 93 -126 198 -205
265 l-64 54 -5 491 c-6 480 -6 491 -29 547 -12 32 -37 79 -55 105 -42 61 -139
128 -206 142 -78 17 -1651 14 -1705 -3z m1679 -147 c51 -14 128 -91 144 -145
6 -23 12 -89 12 -148 l0 -106 -980 0 -980 0 0 98 c0 162 35 238 132 286 l52
26 790 0 c535 0 804 -4 830 -11z m-669 -1058 c69 -34 126 -91 156 -156 37 -80
60 -75 -311 -75 -257 0 -330 3 -330 13 1 50 89 166 158 209 93 57 221 61 327
9z m168 -423 c-42 -109 -127 -184 -242 -214 -118 -30 -246 9 -329 100 -41 44
-81 115 -82 144 0 9 74 12 335 12 l335 0 -17 -42z m-208 -393 c157 -41 282
-154 338 -303 19 -50 22 -82 25 -271 l3 -214 -28 18 c-202 133 -279 156 -403
119 -72 -21 -169 -116 -193 -188 -42 -123 -12 -231 94 -342 l62 -64 -246 0
-247 0 0 403 c0 247 4 426 11 463 17 92 64 181 133 250 123 122 291 170 451
129z m287 -1602 l224 -208 -705 -3 c-389 -1 -720 0 -737 3 -41 7 -109 67 -137
119 -18 34 -22 62 -25 169 l-4 127 580 0 580 0 224 -207z"/>
<path d="M1565 4715 c-14 -13 -25 -36 -25 -50 0 -14 11 -37 25 -50 24 -25 27
-25 190 -25 152 0 167 2 185 20 28 28 26 81 -3 108 -22 21 -33 22 -186 22
-159 0 -162 -1 -186 -25z"/>
<path d="M2250 4718 c-38 -41 -22 -108 30 -127 37 -12 72 -1 94 31 22 30 20
60 -5 92 -27 34 -88 37 -119 4z"/>
<path d="M1545 1453 c-56 -14 -76 -91 -34 -129 19 -17 41 -19 227 -22 227 -3
253 1 273 50 15 37 -1 75 -41 95 -25 13 -378 17 -425 6z"/>
<path d="M3205 4715 c-14 -13 -25 -36 -25 -50 0 -14 11 -37 25 -50 23 -24 30
-25 140 -25 110 0 117 1 140 25 14 13 25 36 25 50 0 14 -11 37 -25 50 -23 24
-30 25 -140 25 -110 0 -117 -1 -140 -25z"/>
<path d="M3102 4475 c-34 -15 -48 -48 -38 -88 3 -13 41 -58 85 -100 88 -86
114 -95 156 -52 42 42 34 71 -48 157 -82 88 -108 102 -155 83z"/>
</g>
</svg>
