<?xml version="1.0" standalone="no"?>
<!DOCTYPE svg PUBLIC "-//W3C//DTD SVG 20010904//EN"
 "http://www.w3.org/TR/2001/REC-SVG-20010904/DTD/svg10.dtd">
<svg version="1.0" xmlns="http://www.w3.org/2000/svg"
 width="640.000000pt" height="640.000000pt" viewBox="0 0 640.000000 640.000000"
 preserveAspectRatio="xMidYMid meet">

<g transform="translate(0.000000,640.000000) scale(0.100000,-0.100000)"
fill="#000000" stroke="none">
<path d="M0 3200 l0 -3200 3200 0 3200 0 0 3200 0 3200 -3200 0 -3200 0 0
-3200z m5085 2550 c10 -11 16 -20 13 -20 -3 0 -13 9 -23 20 -10 11 -16 20 -13
20 3 0 13 -9 23 -20z m-610 -903 c237 -1 -270 -3 -1125 -4 -855 -1 -1547 1
-1538 5 16 6 1587 6 2663 -1z m957 -4 c-62 -2 -161 -2 -220 0 -59 1 -8 3 113
3 121 0 169 -2 107 -3z m-4665 -2716 c-1 -479 -2 -87 -2 873 0 960 1 1352 2
872 2 -479 2 -1265 0 -1745z m4870 0 c-1 -479 -2 -87 -2 873 0 960 1 1352 2
872 2 -479 2 -1265 0 -1745z m-207 2038 c0 -261 -3 -475 -7 -475 -5 0 -7 211
-5 470 l2 470 -2220 0 -2220 0 0 -1630 0 -1630 625 0 c344 0 625 2 625 5 0 2
-18 32 -40 66 -47 73 -94 191 -123 308 -19 81 -21 120 -24 649 -5 631 -9 593
68 633 136 69 1088 489 1109 489 42 0 1131 -495 1158 -526 l23 -27 -4 -566
c-4 -613 -3 -600 -64 -782 -14 -45 -48 -118 -75 -162 -26 -44 -48 -82 -48 -84
0 -1 272 -3 605 -3 l605 0 0 464 c0 307 -3 466 -10 469 -6 3 -5 4 2 3 10 -2
14 -102 16 -474 l2 -472 -617 0 -617 0 -75 -73 c-42 -40 -92 -84 -111 -99
l-35 -27 790 -3 790 -3 -800 -5 -800 -5 -332 -252 c-183 -139 -342 -257 -352
-263 -25 -13 -77 -13 -101 0 -10 5 -170 124 -356 265 l-337 255 -816 2 -816 3
810 5 809 5 -49 37 c-28 20 -77 64 -110 97 l-59 61 -638 0 -638 0 0 1640 0
1640 2230 0 2230 0 0 -475z m-53 -481 c-3 -3 -12 -4 -19 -1 -8 3 -5 6 6 6 11
1 17 -2 13 -5z m-337 -157 c0 -1 -24 -25 -52 -52 l-53 -50 50 53 c46 48 55 57
55 49z m390 -532 c0 -267 -3 -485 -7 -485 -5 0 -7 218 -5 485 1 267 5 485 7
485 3 0 5 -218 5 -485z m-643 -32 c-2 -21 -4 -4 -4 37 0 41 2 58 4 38 2 -21 2
-55 0 -75z m210 60 c-3 -10 -5 -4 -5 12 0 17 2 24 5 18 2 -7 2 -21 0 -30z m0
-70 c-3 -10 -5 -4 -5 12 0 17 2 24 5 18 2 -7 2 -21 0 -30z m-200 -85 c-3 -8
-6 -5 -6 6 -1 11 2 17 5 13 3 -3 4 -12 1 -19z m339 -200 l29 -33 -32 29 c-31
28 -38 36 -30 36 2 0 16 -15 33 -32z m-195 -95 c13 -16 12 -17 -3 -4 -17 13
-22 21 -14 21 2 0 10 -8 17 -17z m94 -93 c10 -11 16 -20 13 -20 -3 0 -13 9
-23 20 -10 11 -16 20 -13 20 3 0 13 -9 23 -20z"/>
<path d="M2733 3082 l-483 -217 0 -457 c0 -273 4 -488 11 -535 25 -180 102
-345 207 -445 64 -61 736 -568 752 -568 14 0 668 492 738 555 95 85 159 200
204 364 20 72 21 105 25 581 l4 505 -473 212 c-260 117 -480 214 -488 217 -8
3 -232 -92 -497 -212z m946 -648 c38 -31 49 -80 28 -120 -9 -16 -125 -138
-259 -270 -254 -253 -278 -270 -330 -244 -33 17 -257 240 -275 274 -33 63 20
146 93 146 28 0 46 -10 87 -48 86 -80 125 -114 132 -114 3 1 75 67 159 149
261 253 261 253 300 253 22 0 45 -9 65 -26z"/>
</g>
</svg>
