<?xml version="1.0" standalone="no"?>
<!DOCTYPE svg PUBLIC "-//W3C//DTD SVG 20010904//EN"
 "http://www.w3.org/TR/2001/REC-SVG-20010904/DTD/svg10.dtd">
<svg version="1.0" xmlns="http://www.w3.org/2000/svg"
 width="640.000000pt" height="640.000000pt" viewBox="0 0 640.000000 640.000000"
 preserveAspectRatio="xMidYMid meet">

<g transform="translate(0.000000,640.000000) scale(0.100000,-0.100000)"
fill="#000000" stroke="none">
<path d="M0 3200 l0 -3200 3200 0 3200 0 0 3200 0 3200 -3200 0 -3200 0 0
-3200z m1887 2434 c-3 -3 -12 -4 -19 -1 -8 3 -5 6 6 6 11 1 17 -2 13 -5z
m2650 0 c-3 -3 -12 -4 -19 -1 -8 3 -5 6 6 6 11 1 17 -2 13 -5z m-2897 -138 c0
-2 -8 -10 -17 -17 -16 -13 -17 -12 -4 4 13 16 21 21 21 13z m3141 -13 c13 -16
12 -17 -3 -4 -10 7 -18 15 -18 17 0 8 8 3 21 -13z m-929 -50 c-358 -2 -946 -2
-1305 0 -358 1 -65 2 653 2 718 0 1011 -1 652 -2z m-2012 -26 c0 -2 -15 -16
-32 -33 l-33 -29 29 33 c28 30 36 37 36 29z m2756 -29 l29 -33 -32 29 c-31 28
-38 36 -30 36 2 0 16 -15 33 -32z m-3049 -120 c-3 -7 -5 -2 -5 12 0 14 2 19 5
13 2 -7 2 -19 0 -25z m3310 0 c-3 -8 -6 -5 -6 6 -1 11 2 17 5 13 3 -3 4 -12 1
-19z m-2291 -222 c38 -38 43 -70 19 -116 -24 -46 -62 -60 -160 -60 l-85 0 0
-86 c0 -62 -5 -94 -17 -114 -33 -57 -104 -66 -155 -21 l-33 29 0 172 0 172 33
29 32 29 166 0 166 0 34 -34z m1686 5 l33 -29 3 -166 c3 -136 0 -171 -13 -199
-32 -68 -115 -81 -166 -26 -28 30 -29 34 -29 135 l0 104 -90 0 c-108 0 -152
15 -175 60 -23 44 -13 92 26 124 30 26 32 26 205 26 l174 0 32 -29z m-1044
-428 c-10 -2 -28 -2 -40 0 -13 2 -5 4 17 4 22 1 32 -1 23 -4z m70 0 c-10 -2
-26 -2 -35 0 -10 3 -2 5 17 5 19 0 27 -2 18 -5z m89 -9 c-3 -3 -12 -4 -19 -1
-8 3 -5 6 6 6 11 1 17 -2 13 -5z m-607 -167 c0 -2 -15 -16 -32 -33 l-33 -29
29 33 c28 30 36 37 36 29z m433 -34 c-7 -2 -19 -2 -25 0 -7 3 -2 5 12 5 14 0
19 -2 13 -5z m100 0 c-7 -2 -21 -2 -30 0 -10 3 -4 5 12 5 17 0 24 -2 18 -5z
m327 -180 c0 -8 -9 0 -50 45 l-45 47 48 -45 c26 -24 47 -45 47 -47z m297 -195
c-3 -8 -6 -5 -6 6 -1 11 2 17 5 13 3 -3 4 -12 1 -19z m-1380 -55 c-3 -10 -5
-2 -5 17 0 19 2 27 5 18 2 -10 2 -26 0 -35z m210 15 c-3 -8 -6 -5 -6 6 -1 11
2 17 5 13 3 -3 4 -12 1 -19z m1073 -138 l100 0 2 43 1 42 4 -37 4 -38 91 0
c107 0 149 -16 172 -65 21 -44 11 -89 -26 -120 l-30 -25 -799 0 -799 0 -2 -32
-1 -33 -4 33 -4 32 -124 0 c-68 0 -135 4 -149 10 -32 12 -66 65 -66 103 0 20
11 40 34 63 l34 34 726 0 726 0 2 58 2 57 3 -62 4 -63 99 0z m-1073 -252 c-3
-8 -6 -5 -6 6 -1 11 2 17 5 13 3 -3 4 -12 1 -19z m1170 -10 c-3 -8 -6 -5 -6 6
-1 11 2 17 5 13 3 -3 4 -12 1 -19z m-1017 -293 c13 -14 21 -25 18 -25 -2 0
-15 11 -28 25 -13 14 -21 25 -18 25 2 0 15 -11 28 -25z m590 -39 c0 -2 -8 -10
-17 -17 -16 -13 -17 -12 -4 4 13 16 21 21 21 13z m-691 -171 c-1 -20 -1 -20
-6 0 -3 11 -26 43 -51 70 l-47 50 53 -50 c32 -30 52 -57 51 -70z m931 112 c0
-2 -17 -19 -37 -38 l-38 -34 34 38 c33 34 41 42 41 34z m87 -283 c-3 -3 -12
-4 -19 -1 -8 3 -5 6 6 6 11 1 17 -2 13 -5z m58 -14 c3 -6 -1 -7 -9 -4 -18 7
-21 14 -7 14 6 0 13 -4 16 -10z m-334 -57 c13 -16 12 -17 -3 -4 -10 7 -18 15
-18 17 0 8 8 3 21 -13z m-631 -17 c0 -2 -8 -10 -17 -17 -16 -13 -17 -12 -4 4
13 16 21 21 21 13z m-257 -123 c-7 -2 -21 -2 -30 0 -10 3 -4 5 12 5 17 0 24
-2 18 -5z m1180 0 c-7 -2 -21 -2 -30 0 -10 3 -4 5 12 5 17 0 24 -2 18 -5z
m-1529 -62 c26 -26 29 -36 34 -120 l5 -91 69 0 c38 0 84 -7 104 -15 69 -29 79
-126 17 -175 -23 -18 -40 -20 -183 -20 l-158 0 -30 28 c-38 36 -45 80 -40 239
4 129 12 152 63 178 40 20 83 11 119 -24z m1948 0 l33 -29 0 -165 c0 -244 -7
-250 -245 -245 l-149 3 -30 29 c-52 50 -39 132 26 165 12 6 60 11 107 11 l86
0 0 99 c0 95 1 100 29 130 40 43 97 44 143 2z m-645 -1353 c-3 -7 -5 -2 -5 12
0 14 2 19 5 13 2 -7 2 -19 0 -25z m-776 -65 c13 -16 12 -17 -3 -4 -10 7 -18
15 -18 17 0 8 8 3 21 -13z m759 13 c0 -2 -8 -10 -17 -17 -16 -13 -17 -12 -4 4
13 16 21 21 21 13z m-693 -42 c-3 -3 -12 -4 -19 -1 -8 3 -5 6 6 6 11 1 17 -2
13 -5z m630 0 c-3 -3 -12 -4 -19 -1 -8 3 -5 6 6 6 11 1 17 -2 13 -5z m-1980
-76 c-3 -7 -5 -2 -5 12 0 14 2 19 5 13 2 -7 2 -19 0 -25z m3310 0 c-3 -7 -5
-2 -5 12 0 14 2 19 5 13 2 -7 2 -19 0 -25z m-3100 0 c-3 -8 -6 -5 -6 6 -1 11
2 17 5 13 3 -3 4 -12 1 -19z m2890 0 c-3 -8 -6 -5 -6 6 -1 11 2 17 5 13 3 -3
4 -12 1 -19z m-2837 -93 c13 -14 21 -25 18 -25 -2 0 -15 11 -28 25 -13 14 -21
25 -18 25 2 0 15 -11 28 -25z m2810 22 c0 -2 -12 -14 -27 -28 l-28 -24 24 28
c23 25 31 32 31 24z m-778 -84 c-353 -2 -931 -2 -1285 0 -353 1 -64 2 643 2
707 0 996 -1 642 -2z m-1955 -199 c-3 -3 -12 -4 -19 -1 -8 3 -5 6 6 6 11 1 17
-2 13 -5z m2650 0 c-3 -3 -12 -4 -19 -1 -8 3 -5 6 6 6 11 1 17 -2 13 -5z"/>
</g>
</svg>
