<?xml version="1.0" standalone="no"?>
<!DOCTYPE svg PUBLIC "-//W3C//DTD SVG 20010904//EN"
 "http://www.w3.org/TR/2001/REC-SVG-20010904/DTD/svg10.dtd">
<svg version="1.0" xmlns="http://www.w3.org/2000/svg"
 width="640.000000pt" height="640.000000pt" viewBox="0 0 640.000000 640.000000"
 preserveAspectRatio="xMidYMid meet">

<g transform="translate(0.000000,640.000000) scale(0.100000,-0.100000)"
fill="#000000" stroke="none">
<path d="M0 3200 l0 -3200 3200 0 3200 0 0 3200 0 3200 -3200 0 -3200 0 0
-3200z m1483 2496 c39 -16 67 -55 67 -92 0 -35 -28 -80 -57 -93 -15 -7 -122
-11 -298 -11 l-275 0 0 -281 0 -281 -34 -34 c-45 -45 -92 -47 -138 -5 l-33 29
-3 346 c-3 384 -2 394 61 421 46 20 663 21 710 1z m4213 -5 c48 -32 49 -37 52
-378 4 -361 0 -392 -51 -423 -18 -11 -42 -20 -55 -20 -31 0 -79 26 -92 49 -6
12 -10 127 -10 300 l0 281 -275 0 c-227 0 -281 3 -305 15 -37 19 -50 43 -50
93 0 43 34 87 73 95 12 3 173 4 357 3 268 -1 339 -4 356 -15z m-2473 -468
c-13 -2 -33 -2 -45 0 -13 2 -3 4 22 4 25 0 35 -2 23 -4z m-166 -9 c-3 -3 -12
-4 -19 -1 -8 3 -5 6 6 6 11 1 17 -2 13 -5z m310 0 c-3 -3 -12 -4 -19 -1 -8 3
-5 6 6 6 11 1 17 -2 13 -5z m-380 -10 c-3 -3 -12 -4 -19 -1 -8 3 -5 6 6 6 11
1 17 -2 13 -5z m450 0 c-3 -3 -12 -4 -19 -1 -8 3 -5 6 6 6 11 1 17 -2 13 -5z
m-209 -191 c-16 -2 -40 -2 -55 0 -16 2 -3 4 27 4 30 0 43 -2 28 -4z m843 -100
c13 -16 12 -17 -3 -4 -17 13 -22 21 -14 21 2 0 10 -8 17 -17z m-1801 -56 c0
-2 -15 -16 -32 -33 l-33 -29 29 33 c28 30 36 37 36 29z m1900 -32 c19 -19 32
-35 29 -35 -3 0 -20 16 -39 35 -19 19 -32 35 -29 35 3 0 20 -16 39 -35z
m-1710 -78 c0 -2 -12 -14 -27 -28 l-28 -24 24 28 c23 25 31 32 31 24z m1505
-17 c10 -11 16 -20 13 -20 -3 0 -13 9 -23 20 -10 11 -16 20 -13 20 3 0 13 -9
23 -20z m-1805 6 c0 -2 -8 -10 -17 -17 -16 -13 -17 -12 -4 4 13 16 21 21 21
13z m190 -99 c0 -2 -12 -14 -27 -28 l-28 -24 24 28 c23 25 31 32 31 24z m1730
-22 c13 -14 21 -25 18 -25 -2 0 -15 11 -28 25 -13 14 -21 25 -18 25 2 0 15
-11 28 -25z m-667 -140 c-3 -9 -8 -14 -10 -11 -3 3 -2 9 2 15 9 16 15 13 8 -4z
m-273 2 c0 -2 -12 -14 -27 -28 l-28 -24 24 28 c23 25 31 32 31 24z m-100 -91
c0 -2 -8 -10 -17 -17 -16 -13 -17 -12 -4 4 13 16 21 21 21 13z m200 -99 c0 -2
-12 -14 -27 -28 l-28 -24 24 28 c23 25 31 32 31 24z m687 -13 c-3 -3 -12 -4
-19 -1 -8 3 -5 6 6 6 11 1 17 -2 13 -5z m60 -10 c-3 -3 -12 -4 -19 -1 -8 3 -5
6 6 6 11 1 17 -2 13 -5z m298 -4 c-3 -5 -30 -9 -58 -8 l-52 1 55 7 c30 4 56 7
58 8 2 1 0 -2 -3 -8z m-142 -7 c-13 -2 -35 -2 -50 0 -16 2 -5 4 22 4 28 0 40
-2 28 -4z m-2286 -155 c-3 -8 -6 -5 -6 6 -1 11 2 17 5 13 3 -3 4 -12 1 -19z
m620 16 c-3 -3 -12 -4 -19 -1 -8 3 -5 6 6 6 11 1 17 -2 13 -5z m-60 -10 c-3
-3 -12 -4 -19 -1 -8 3 -5 6 6 6 11 1 17 -2 13 -5z m-249 -11 c-10 -2 -28 -2
-40 0 -13 2 -5 4 17 4 22 1 32 -1 23 -4z m165 0 c-13 -2 -33 -2 -45 0 -13 2
-3 4 22 4 25 0 35 -2 23 -4z m1810 -50 c-13 -2 -35 -2 -50 0 -16 2 -5 4 22 4
28 0 40 -2 28 -4z m85 0 c-10 -2 -28 -2 -40 0 -13 2 -5 4 17 4 22 1 32 -1 23
-4z m129 -120 c-3 -10 -5 -2 -5 17 0 19 2 27 5 18 2 -10 2 -26 0 -35z m210 0
c-3 -10 -5 -4 -5 12 0 17 2 24 5 18 2 -7 2 -21 0 -30z m-2730 -10 c-3 -10 -5
-4 -5 12 0 17 2 24 5 18 2 -7 2 -21 0 -30z m331 -30 c-10 -2 -28 -2 -40 0 -13
2 -5 4 17 4 22 1 32 -1 23 -4z m165 0 c-7 -2 -19 -2 -25 0 -7 3 -2 5 12 5 14
0 19 -2 13 -5z m-503 -86 c0 -2 -17 -19 -37 -38 l-38 -34 34 38 c33 34 41 42
41 34z m2780 -32 c19 -19 32 -35 29 -35 -3 0 -20 16 -39 35 -19 19 -32 35 -29
35 3 0 20 -16 39 -35z m-2869 -475 c54 0 99 3 99 8 0 4 608 6 1352 4 1077 -2
1353 0 1360 10 5 9 8 8 8 -4 0 -16 11 -18 100 -18 l100 0 2 53 2 52 3 -47 4
-47 372 -3 c336 -3 375 -5 398 -21 47 -31 61 -86 35 -135 -30 -58 -24 -57
-568 -56 -274 0 -498 -2 -498 -5 0 -3 -589 -6 -1310 -6 -720 0 -1310 3 -1310
7 0 3 -195 4 -432 1 -238 -3 -455 -3 -482 1 -66 10 -106 49 -106 104 0 50 29
88 78 102 22 6 169 10 360 10 l322 0 2 48 2 47 3 -52 4 -53 100 0z m106 53
c-3 -10 -5 -4 -5 12 0 17 2 24 5 18 2 -7 2 -21 0 -30z m2710 0 c-3 -10 -5 -4
-5 12 0 17 2 24 5 18 2 -7 2 -21 0 -30z m-2562 -413 c10 -11 16 -20 13 -20 -3
0 -13 9 -23 20 -10 11 -16 20 -13 20 3 0 13 -9 23 -20z m136 -87 c13 -16 12
-17 -3 -4 -10 7 -18 15 -18 17 0 8 8 3 21 -13z m2469 -17 c0 -2 -8 -10 -17
-17 -16 -13 -17 -12 -4 4 13 16 21 21 21 13z m-2730 -61 c13 -14 21 -25 18
-25 -2 0 -15 11 -28 25 -13 14 -21 25 -18 25 2 0 15 -11 28 -25z m2190 -199
c0 -2 -8 -10 -17 -17 -16 -13 -17 -12 -4 4 13 16 21 21 21 13z m-1699 -73 c13
-16 12 -17 -3 -4 -10 7 -18 15 -18 17 0 8 8 3 21 -13z m1879 -37 c0 -2 -8 -10
-17 -17 -16 -13 -17 -12 -4 4 13 16 21 21 21 13z m-1744 -98 l29 -33 -32 29
c-31 28 -38 36 -30 36 2 0 16 -15 33 -32z m1384 29 c0 -2 -10 -12 -22 -23
l-23 -19 19 23 c18 21 26 27 26 19z m300 0 c0 -1 -37 -38 -82 -82 l-83 -80 80
83 c74 76 85 87 85 79z m-1910 -102 c35 -36 62 -65 59 -65 -2 0 -34 29 -69 65
-35 36 -62 65 -59 65 2 0 34 -29 69 -65z m291 18 c13 -16 12 -17 -3 -4 -10 7
-18 15 -18 17 0 8 8 3 21 -13z m1239 13 c0 -2 -8 -10 -17 -17 -16 -13 -17 -12
-4 4 13 16 21 21 21 13z m-673 -522 c-3 -3 -12 -4 -19 -1 -8 3 -5 6 6 6 11 1
17 -2 13 -5z m-2245 -313 l33 -29 3 -286 3 -286 280 0 281 0 34 -34 c53 -53
41 -126 -27 -162 -41 -21 -663 -21 -714 0 -65 27 -66 36 -63 422 l3 346 33 29
c44 39 90 39 134 0z m4826 1 c41 -39 44 -65 40 -422 -3 -335 -5 -347 -63 -375
-49 -23 -671 -23 -720 0 -63 31 -76 118 -24 166 l31 29 284 0 284 0 0 286 0
286 31 29 c42 40 95 40 137 1z m-3268 -75 c0 -2 -19 -21 -42 -42 l-43 -40 40
43 c36 39 45 47 45 39z m1566 -39 l29 -33 -32 29 c-18 17 -33 31 -33 33 0 8 8
1 36 -29z m-2028 15 c-10 -2 -28 -2 -40 0 -13 2 -5 4 17 4 22 1 32 -1 23 -4z
m2490 0 c-10 -2 -28 -2 -40 0 -13 2 -5 4 17 4 22 1 32 -1 23 -4z m-2607 -180
c13 -16 12 -17 -3 -4 -17 13 -22 21 -14 21 2 0 10 -8 17 -17z m2699 13 c0 -2
-8 -10 -17 -17 -16 -13 -17 -12 -4 4 13 16 21 21 21 13z m-2592 -43 c-10 -2
-26 -2 -35 0 -10 3 -2 5 17 5 19 0 27 -2 18 -5z m2510 0 c-10 -2 -28 -2 -40 0
-13 2 -5 4 17 4 22 1 32 -1 23 -4z"/>
</g>
</svg>
