<?xml version="1.0" standalone="no"?>
<!DOCTYPE svg PUBLIC "-//W3C//DTD SVG 20010904//EN"
 "http://www.w3.org/TR/2001/REC-SVG-20010904/DTD/svg10.dtd">
<svg version="1.0" xmlns="http://www.w3.org/2000/svg"
 width="512.000000pt" height="512.000000pt" viewBox="0 0 512.000000 512.000000"
 preserveAspectRatio="xMidYMid meet">

<g transform="translate(0.000000,512.000000) scale(0.100000,-0.100000)"
fill="#1a4f6e" stroke="none">
<path d="M2406 4840 c-314 -40 -594 -174 -814 -392 -205 -203 -328 -430 -389
-718 -27 -129 -24 -400 6 -540 42 -199 116 -391 208 -540 64 -104 118 -172
335 -422 103 -119 188 -219 188 -222 0 -3 -157 -7 -350 -8 l-350 -3 -26 -26
c-21 -22 -72 -167 -265 -760 -131 -404 -239 -750 -239 -769 0 -45 23 -78 66
-96 50 -21 3518 -21 3568 0 43 18 66 51 66 96 0 43 -464 1475 -489 1510 -10
14 -29 31 -42 37 -32 17 -472 18 -518 2 -62 -22 -83 -122 -37 -176 l24 -28
203 -5 203 -5 198 -605 c108 -333 197 -608 197 -612 1 -5 -714 -8 -1589 -8
-875 0 -1590 1 -1590 3 0 1 89 277 198 612 l198 610 386 3 386 2 146 -169 c80
-93 146 -171 146 -175 0 -3 -51 -6 -114 -6 -108 0 -116 -1 -144 -25 -38 -32
-48 -72 -28 -118 27 -66 35 -67 416 -67 381 0 389 1 416 67 20 46 10 86 -28
118 -28 24 -36 25 -145 25 -65 0 -113 4 -111 9 2 5 197 234 434 508 236 274
453 527 481 563 143 184 246 413 305 680 30 132 32 424 4 550 -120 553 -538
968 -1087 1080 -114 24 -320 33 -423 20z m383 -236 c351 -72 649 -301 809
-620 43 -84 83 -201 104 -299 19 -92 16 -333 -5 -435 -43 -197 -126 -402 -224
-547 -50 -75 -899 -1063 -913 -1063 -9 0 -789 900 -866 999 -207 269 -323 661
-285 968 22 176 94 371 192 514 57 85 179 211 264 274 266 197 606 274 924
209z"/>
<path d="M2422 4010 c-210 -57 -363 -216 -407 -425 -8 -38 -15 -88 -15 -110 0
-22 7 -71 15 -110 91 -431 623 -593 936 -285 222 219 222 572 0 790 -59 58
-148 111 -228 136 -81 25 -217 27 -301 4z m281 -234 c65 -31 140 -109 170
-174 32 -71 30 -189 -4 -262 -34 -72 -97 -135 -167 -168 -48 -23 -71 -27 -142
-27 -71 0 -94 4 -140 26 -70 33 -132 95 -167 167 -54 110 -32 257 53 351 81
90 157 123 271 117 52 -2 86 -10 126 -30z"/>
</g>
</svg>
