<?xml version="1.0" standalone="no"?>
<!DOCTYPE svg PUBLIC "-//W3C//DTD SVG 20010904//EN"
 "http://www.w3.org/TR/2001/REC-SVG-20010904/DTD/svg10.dtd">
<svg version="1.0" xmlns="http://www.w3.org/2000/svg"
 width="512.000000pt" height="512.000000pt" viewBox="0 0 512.000000 512.000000"
 preserveAspectRatio="xMidYMid meet">

<g transform="translate(0.000000,512.000000) scale(0.100000,-0.100000)"
fill="#1a4f6e" stroke="none">
<path d="M1835 5099 c-458 -48 -910 -265 -1237 -596 -525 -528 -725 -1305
-518 -2003 168 -564 613 -1215 1299 -1899 215 -214 639 -591 665 -591 3 0 6
114 6 254 l0 254 -157 145 c-752 690 -1275 1407 -1437 1969 -72 248 -74 566
-5 833 119 465 421 844 850 1065 742 382 1666 134 2122 -570 132 -205 222
-445 252 -678 l7 -53 197 -180 c226 -207 208 -206 210 -13 5 553 -208 1076
-597 1467 -432 437 -1051 659 -1657 596z"/>
<path d="M1893 3899 c-162 -27 -312 -108 -443 -239 -171 -171 -250 -359 -250
-595 0 -236 79 -424 250 -595 171 -171 359 -250 595 -250 236 0 424 79 595
250 171 171 250 359 250 595 0 236 -79 424 -250 595 -134 134 -280 212 -451
239 -75 13 -222 12 -296 0z m274 -404 c193 -57 323 -231 323 -430 0 -248 -197
-445 -445 -445 -248 0 -445 197 -445 445 0 197 129 371 319 429 61 19 185 20
248 1z"/>
<path d="M2799 2095 c-420 -383 -768 -702 -773 -710 -7 -9 27 -53 124 -159
l133 -147 53 52 52 51 4 -368 c4 -293 8 -378 20 -414 60 -181 195 -319 368
-376 51 -17 111 -19 751 -22 771 -3 782 -2 909 60 137 67 262 232 289 382 7
35 11 200 11 399 l0 339 51 -46 c28 -25 55 -46 59 -46 4 0 52 48 106 107 54
60 113 124 131 144 l33 35 -772 705 c-424 387 -774 705 -778 707 -4 1 -351
-311 -771 -693z m1157 -196 l385 -352 -3 -528 c-3 -516 -3 -528 -24 -556 -48
-65 -20 -63 -747 -63 -644 0 -659 0 -698 21 -29 14 -46 32 -60 62 -17 40 -19
72 -19 553 l0 510 386 352 c213 194 388 352 391 352 2 0 177 -158 389 -351z"/>
<path d="M3270 1110 l0 -300 300 0 300 0 0 300 0 300 -300 0 -300 0 0 -300z"/>
</g>
</svg>
