<?xml version="1.0" standalone="no"?>
<!DOCTYPE svg PUBLIC "-//W3C//DTD SVG 20010904//EN"
 "http://www.w3.org/TR/2001/REC-SVG-20010904/DTD/svg10.dtd">
<svg version="1.0" xmlns="http://www.w3.org/2000/svg"
 width="512.000000pt" height="512.000000pt" viewBox="0 0 512.000000 512.000000"
 preserveAspectRatio="xMidYMid meet">

<g transform="translate(0.000000,512.000000) scale(0.100000,-0.100000)"
fill="#93186c" stroke="none">
<path d="M234 4144 c-58 -21 -120 -77 -152 -138 l-27 -51 0 -1395 0 -1395 27
-51 c15 -29 46 -68 69 -87 84 -73 -118 -67 2409 -67 2527 0 2325 -6 2409 67
23 19 54 58 69 87 l27 51 0 1395 0 1395 -27 51 c-15 29 -46 68 -69 87 -84 73
118 67 -2413 66 -1972 0 -2287 -3 -2322 -15z m4600 -148 c18 -7 42 -26 54 -41
l22 -28 0 -1367 0 -1367 -22 -28 c-46 -59 107 -55 -2328 -55 -2435 0 -2282 -4
-2328 55 l-22 28 0 1367 0 1367 22 28 c45 58 -106 54 2326 55 1884 0 2248 -2
2276 -14z"/>
<path d="M745 3695 c-30 -30 -32 -64 -4 -99 l20 -26 899 0 899 0 20 26 c28 35
26 69 -4 99 l-24 25 -891 0 -891 0 -24 -25z"/>
<path d="M835 3223 c-87 -19 -95 -45 -95 -302 0 -244 6 -272 65 -297 30 -12
93 -14 391 -12 l356 3 29 33 29 32 0 239 c0 225 -1 240 -20 264 -12 15 -38 31
-58 37 -36 10 -653 13 -697 3z"/>
<path d="M745 2295 c-32 -31 -32 -66 -1 -102 23 -26 29 -28 101 -28 72 0 78 2
102 29 19 23 24 36 19 60 -10 51 -38 66 -123 66 -65 0 -77 -3 -98 -25z"/>
<path d="M1084 2297 c-32 -28 -36 -80 -7 -108 22 -22 97 -34 148 -25 73 14 99
82 50 131 -21 22 -33 25 -94 25 -59 0 -74 -4 -97 -23z"/>
<path d="M1415 2295 c-30 -30 -33 -77 -6 -104 39 -39 167 -40 205 -1 29 28 25
78 -8 107 -23 19 -38 23 -97 23 -61 0 -73 -3 -94 -25z"/>
<path d="M2132 2300 c-46 -43 -33 -108 26 -131 46 -18 138 -6 167 21 33 31 33
73 0 105 -21 22 -33 25 -98 25 -60 0 -77 -4 -95 -20z"/>
<path d="M2466 2299 c-46 -36 -32 -108 25 -128 65 -23 160 -7 179 29 19 35 12
77 -16 99 -21 17 -41 21 -94 21 -53 0 -73 -4 -94 -21z"/>
<path d="M2795 2295 c-33 -32 -33 -74 0 -105 29 -27 121 -39 167 -21 59 23 72
88 26 131 -18 16 -35 20 -95 20 -65 0 -77 -3 -98 -25z"/>
<path d="M3514 2297 c-34 -29 -37 -79 -7 -109 38 -38 165 -36 204 3 27 27 24
74 -6 104 -21 22 -33 25 -94 25 -59 0 -74 -4 -97 -23z"/>
<path d="M3845 2295 c-30 -30 -33 -77 -6 -104 39 -39 166 -41 203 -4 30 30 27
81 -6 110 -23 19 -38 23 -97 23 -61 0 -73 -3 -94 -25z"/>
<path d="M4181 2303 c-34 -29 -37 -74 -8 -109 24 -27 30 -29 102 -29 72 0 78
2 101 28 31 36 31 71 -1 102 -21 22 -33 25 -98 25 -57 0 -80 -4 -96 -17z"/>
<path d="M2560 1897 c-52 -26 -48 -111 6 -136 18 -8 271 -11 900 -11 l876 0
29 29 c43 43 38 91 -12 116 -24 13 -154 15 -901 15 -681 0 -878 -3 -898 -13z"/>
<path d="M3170 1523 c-26 -33 -21 -79 11 -105 20 -17 63 -18 596 -18 l574 0
24 25 c30 30 32 64 4 99 l-20 26 -584 0 -584 0 -21 -27z"/>
</g>
</svg>
