<svg xmlns="http://www.w3.org/2000/svg" xmlns:xlink="http://www.w3.org/1999/xlink" width="2245" zoomAndPan="magnify" viewBox="0 0 1683.75 1190.250009" height="1587" preserveAspectRatio="xMidYMid meet" version="1.0"><path fill="#93186c" d="M 199.929688 442.167969 C 197.867188 442.167969 193.21875 442.683594 193.21875 442.683594 C 148.824219 448.621094 93.585938 478.820312 69.066406 532.765625 C 37.058594 604.007812 58.480469 680.667969 118.109375 707.515625 C 161.214844 727.132812 211.03125 714.226562 248.457031 674.734375 C 247.941406 673.957031 246.652344 672.667969 246.136719 671.378906 C 212.835938 706.996094 168.183594 718.613281 129.722656 701.320312 C 93.328125 685.316406 73.195312 648.148438 73.195312 605.558594 C 73.195312 585.941406 77.324219 565.289062 86.359375 544.898438 C 108.816406 495.597656 158.117188 468.496094 194.769531 463.589844 C 194.769531 463.589844 201.222656 462.816406 203.027344 462.300781 C 202.769531 461.011719 200.191406 443.714844 199.929688 442.167969 M 133.59375 696.671875 C 169.730469 712.933594 211.03125 701.578125 242.261719 667.503906 C 241.488281 666.730469 240.199219 665.183594 239.683594 664.148438 C 212.578125 694.609375 176.441406 704.933594 145.210938 690.738281 C 128.175781 682.992188 114.492188 668.023438 107.007812 648.664062 C 102.878906 638.082031 101.070312 626.207031 101.070312 614.074219 C 101.070312 597.554688 104.683594 580.519531 111.914062 563.742188 C 129.722656 524.507812 168.699219 501.792969 199.414062 496.890625 C 199.414062 496.890625 206.382812 496.113281 207.933594 495.597656 C 207.417969 491.984375 205.609375 479.851562 204.320312 473.917969 C 202.769531 474.175781 196.574219 475.464844 196.574219 475.464844 C 163.019531 480.886719 116.042969 503.34375 94.359375 551.09375 C 85.84375 569.9375 81.714844 589.554688 81.714844 607.878906 C 81.972656 647.113281 100.554688 681.703125 133.59375 696.671875 M 149.597656 685.574219 C 178.25 698.222656 211.289062 688.414062 236.066406 659.503906 C 235.550781 658.730469 234.003906 657.179688 233.230469 655.890625 C 212.578125 681.1875 184.960938 690.21875 161.214844 679.636719 C 140.5625 670.085938 128.949219 648.40625 128.949219 622.851562 C 128.949219 609.945312 131.789062 596.265625 137.726562 582.585938 C 151.921875 551.351562 181.347656 533.027344 203.289062 529.929688 C 203.289062 529.929688 211.546875 528.378906 213.355469 528.378906 C 213.097656 526.574219 210 508.761719 209.738281 507.214844 C 208.191406 507.472656 200.707031 509.019531 200.707031 509.019531 C 174.378906 513.410156 137.464844 531.734375 120.429688 569.9375 C 113.203125 585.683594 110.105469 601.425781 110.105469 616.398438 C 110.105469 647.628906 124.300781 674.21875 149.597656 685.574219 M 906.921875 593.425781 C 906.921875 570.453125 916.988281 565.546875 925.246094 565.546875 C 936.863281 565.546875 942.800781 574.582031 942.800781 593.425781 L 942.800781 594.199219 L 906.921875 594.199219 Z M 872.074219 606.847656 C 872.074219 651.761719 890.917969 674.734375 928.34375 674.734375 C 948.21875 674.734375 970.417969 663.117188 973.773438 631.109375 L 941.765625 631.109375 C 940.21875 642.984375 934.796875 648.921875 924.214844 648.921875 C 907.953125 648.921875 906.40625 632.144531 906.40625 616.140625 L 906.40625 615.367188 L 968.351562 615.367188 C 971.96875 615.367188 974.546875 612.785156 974.546875 608.914062 C 974.546875 563.484375 957.769531 539.996094 923.699219 539.996094 C 892.464844 539.738281 872.074219 566.066406 872.074219 606.847656 M 1534.667969 593.425781 C 1534.667969 570.453125 1544.734375 565.546875 1552.992188 565.546875 C 1564.609375 565.546875 1570.546875 574.582031 1570.546875 593.425781 L 1570.546875 594.199219 L 1534.925781 594.199219 L 1534.925781 593.425781 Z M 1499.5625 606.847656 C 1499.5625 651.761719 1518.664062 674.734375 1556.347656 674.734375 C 1576.226562 674.734375 1597.90625 663.117188 1601.519531 631.109375 L 1569.773438 631.109375 C 1568.222656 642.984375 1562.285156 648.921875 1552.21875 648.921875 C 1535.957031 648.921875 1534.410156 632.144531 1534.410156 616.140625 L 1534.410156 615.367188 L 1596.359375 615.367188 C 1599.972656 615.367188 1602.554688 612.785156 1602.554688 608.914062 C 1602.554688 563.484375 1585.515625 539.996094 1551.703125 539.996094 C 1520.210938 539.738281 1499.5625 566.066406 1499.5625 606.847656 M 826.902344 498.179688 L 801.609375 498.179688 L 801.609375 641.695312 C 801.609375 663.890625 811.675781 674.734375 832.066406 674.734375 C 842.390625 674.734375 854.265625 672.410156 863.039062 669.054688 C 862.523438 664.925781 859.167969 646.855469 859.167969 646.855469 C 858.652344 643.5 857.105469 641.953125 853.230469 642.984375 C 849.875 643.5 847.296875 643.757812 844.199219 643.757812 C 838.261719 643.757812 835.164062 639.628906 835.164062 632.144531 L 835.164062 566.839844 L 863.558594 566.839844 L 863.558594 547.222656 C 863.558594 543.609375 860.976562 540.769531 857.105469 540.769531 L 835.164062 540.769531 L 835.164062 505.40625 C 835.164062 502.050781 834.648438 500.503906 833.355469 499.210938 C 831.808594 498.4375 829.742188 498.179688 826.902344 498.179688 M 1028.238281 556.773438 L 1026.945312 558.578125 L 1024.367188 547.996094 C 1023.074219 544.125 1019.976562 541.285156 1016.105469 541.285156 L 995.199219 541.285156 L 995.199219 666.472656 C 995.199219 669.828125 998.039062 672.667969 1001.652344 672.667969 L 1028.496094 672.667969 L 1028.496094 611.234375 C 1028.496094 594.972656 1031.851562 584.390625 1038.820312 577.9375 C 1044.757812 572.257812 1053.273438 569.9375 1065.148438 570.195312 L 1065.148438 546.191406 C 1065.148438 543.351562 1063.339844 539.738281 1058.4375 539.738281 C 1043.207031 539.738281 1035.464844 546.707031 1028.238281 556.773438 M 1460.84375 556.773438 L 1459.554688 558.578125 L 1456.972656 547.996094 C 1456.199219 544.125 1452.585938 541.285156 1448.972656 541.285156 L 1427.804688 541.285156 L 1427.804688 666.472656 C 1427.804688 669.828125 1430.644531 672.667969 1434.257812 672.667969 L 1461.363281 672.667969 L 1461.363281 611.234375 C 1461.363281 594.972656 1464.71875 584.390625 1471.429688 577.9375 C 1477.363281 572.257812 1485.882812 569.9375 1497.757812 570.195312 L 1497.757812 546.191406 C 1497.757812 543.351562 1495.949219 539.738281 1491.046875 539.738281 C 1475.816406 539.738281 1468.332031 546.449219 1460.84375 556.773438 M 1202.984375 482.433594 L 1176.140625 482.433594 L 1176.140625 666.472656 C 1176.140625 669.828125 1178.722656 672.667969 1182.335938 672.667969 L 1209.4375 672.667969 L 1209.4375 595.492188 C 1209.4375 578.972656 1218.214844 567.355469 1230.601562 567.355469 C 1238.605469 567.355469 1242.734375 571.742188 1242.734375 579.746094 L 1242.734375 666.214844 C 1242.734375 669.570312 1245.574219 672.410156 1249.1875 672.410156 L 1276.03125 672.410156 L 1276.03125 572.519531 C 1276.03125 552.382812 1263.382812 539.476562 1243.507812 539.476562 C 1226.472656 539.476562 1215.117188 549.804688 1210.984375 553.933594 L 1209.179688 556 L 1209.179688 488.371094 C 1209.4375 485.015625 1206.597656 482.433594 1202.984375 482.433594 M 1111.867188 647.890625 C 1103.609375 647.890625 1095.605469 644.53125 1087.605469 641.695312 L 1081.410156 639.371094 C 1079.859375 638.855469 1078.828125 638.855469 1077.539062 639.371094 C 1075.988281 640.144531 1074.957031 641.695312 1073.925781 643.757812 C 1073.925781 643.757812 1067.988281 662.601562 1067.730469 664.410156 C 1078.3125 668.539062 1098.960938 674.992188 1113.417969 674.992188 C 1146.457031 674.992188 1158.328125 654.082031 1158.328125 634.207031 C 1158.328125 614.074219 1143.875 602.976562 1129.421875 595.492188 L 1123.484375 592.652344 C 1113.933594 587.746094 1106.449219 584.132812 1106.449219 576.132812 C 1106.449219 570.195312 1110.0625 564.515625 1118.320312 564.515625 C 1125.804688 564.515625 1132 567.097656 1136.90625 569.164062 L 1141.035156 570.710938 C 1145.164062 572.519531 1147.488281 567.871094 1148.519531 566.066406 C 1148.519531 566.066406 1154.199219 550.578125 1154.714844 549.289062 L 1154.457031 549.027344 C 1142.585938 544.382812 1131.742188 539.480469 1115.480469 539.480469 C 1089.667969 539.480469 1073.148438 554.707031 1073.148438 578.453125 C 1073.148438 596.265625 1086.054688 606.332031 1099.21875 613.300781 L 1105.929688 616.65625 C 1116.257812 622.335938 1125.804688 626.980469 1125.03125 637.046875 C 1124.773438 644.015625 1120.128906 647.890625 1111.867188 647.890625 M 771.410156 541.285156 L 744.5625 541.285156 L 744.5625 618.980469 C 744.5625 634.726562 734.496094 647.113281 721.847656 647.113281 C 713.589844 647.113281 708.167969 642.210938 708.167969 634.464844 L 708.167969 547.996094 C 708.167969 544.382812 705.585938 541.542969 701.972656 541.542969 L 674.871094 541.542969 L 674.871094 641.4375 C 674.871094 661.3125 688.550781 674.734375 708.945312 674.734375 C 722.882812 674.734375 735.273438 668.796875 745.597656 658.214844 L 746.886719 656.921875 C 746.886719 656.921875 749.210938 666.730469 749.210938 666.988281 C 749.726562 669.3125 751.273438 672.667969 755.921875 672.667969 L 778.121094 672.667969 L 778.121094 547.738281 C 777.859375 544.125 774.765625 541.285156 771.410156 541.285156 M 583.238281 558.320312 L 581.949219 560.902344 L 581.175781 558.0625 L 579.109375 547.996094 C 578.335938 544.125 574.722656 541.285156 571.109375 541.285156 L 550.457031 541.285156 L 550.457031 720.679688 C 550.457031 724.550781 553.296875 727.132812 556.910156 727.132812 L 584.011719 727.132812 L 584.011719 658.988281 L 585.820312 661.3125 C 593.304688 670.085938 602.597656 674.992188 614.472656 674.992188 C 625.570312 674.992188 635.636719 669.054688 641.316406 663.375 C 651.898438 652.535156 657.320312 634.722656 657.320312 609.171875 C 657.320312 547.480469 632.28125 539.996094 613.4375 539.996094 C 600.015625 539.738281 587.367188 549.285156 583.238281 558.320312 M 582.464844 607.105469 C 582.464844 581.808594 588.660156 569.679688 601.308594 569.679688 C 616.019531 569.679688 621.957031 580.519531 621.957031 607.105469 C 621.957031 630.851562 618.34375 646.339844 601.308594 646.339844 C 588.660156 646.339844 582.464844 633.433594 582.464844 607.105469 M 458.308594 556.773438 L 457.535156 558.320312 L 456.761719 556.515625 C 452.113281 545.929688 441.789062 539.738281 427.851562 539.738281 C 416.234375 539.738281 402.8125 546.449219 394.296875 556.257812 L 393.003906 557.804688 L 390.683594 547.222656 C 390.164062 544.640625 388.359375 541.285156 383.972656 541.285156 L 361.773438 541.285156 L 361.773438 666.472656 C 361.773438 669.828125 364.613281 672.667969 367.96875 672.667969 L 395.070312 672.667969 L 395.070312 595.492188 C 395.070312 578.453125 403.328125 567.355469 415.71875 567.355469 C 421.140625 567.355469 426.558594 571.742188 426.558594 579.746094 L 426.558594 666.214844 C 426.558594 669.570312 429.140625 672.410156 432.753906 672.410156 L 459.859375 672.410156 L 459.859375 595.230469 C 459.859375 578.195312 468.117188 567.097656 480.507812 567.097656 C 485.929688 567.097656 491.347656 571.484375 491.347656 579.488281 L 491.347656 665.957031 C 491.347656 669.3125 494.1875 672.152344 497.542969 672.152344 L 524.644531 672.152344 L 524.644531 575.355469 C 524.644531 552.902344 512.773438 539.21875 492.640625 539.21875 C 480.765625 539.738281 466.828125 546.449219 458.308594 556.773438 M 232.195312 606.847656 C 232.195312 650.46875 251.554688 674.734375 286.917969 674.734375 C 321.507812 674.734375 341.382812 649.953125 341.382812 606.847656 C 341.382812 565.03125 320.988281 539.738281 286.917969 539.738281 C 252.589844 539.738281 232.195312 564.773438 232.195312 606.847656 M 265.492188 606.589844 C 265.492188 580.261719 272.464844 567.613281 286.660156 567.613281 C 301.113281 567.613281 308.082031 580.261719 308.082031 606.589844 C 308.082031 633.175781 301.113281 646.082031 286.660156 646.082031 C 272.464844 646.082031 265.492188 633.175781 265.492188 606.589844 M 1295.390625 606.074219 C 1295.390625 667.246094 1320.171875 674.21875 1338.753906 674.21875 C 1354.5 674.21875 1367.664062 668.539062 1374.375 658.730469 L 1375.925781 656.664062 L 1377.472656 665.441406 C 1378.246094 670.085938 1380.3125 672.152344 1384.183594 672.152344 L 1406.898438 672.152344 C 1403.542969 661.570312 1404.316406 651.246094 1404.316406 641.695312 L 1404.316406 547.222656 C 1404.316406 543.609375 1401.734375 540.769531 1398.121094 540.769531 L 1383.667969 540.769531 C 1379.796875 540.769531 1376.699219 543.609375 1375.664062 547.222656 L 1373.085938 557.546875 L 1371.792969 556 C 1365.597656 548.253906 1352.691406 541.027344 1337.722656 541.027344 C 1326.625 541.027344 1316.816406 546.707031 1311.136719 552.382812 C 1300.8125 563.484375 1295.390625 580.777344 1295.390625 606.074219 M 1330.238281 607.878906 C 1330.238281 584.90625 1333.851562 569.164062 1350.886719 569.164062 C 1363.277344 569.164062 1369.472656 581.808594 1369.472656 607.878906 C 1369.472656 632.917969 1363.277344 645.050781 1350.886719 645.050781 C 1336.171875 645.050781 1330.238281 634.464844 1330.238281 607.878906 " fill-opacity="1" fill-rule="nonzero"/></svg>