<?xml version="1.0" encoding="utf-8"?>
<!-- Generator: Adobe Illustrator 19.2.1, SVG Export Plug-In . SVG Version: 6.00 Build 0)  -->
<svg version="1.1" id="layer" xmlns="http://www.w3.org/2000/svg" xmlns:xlink="http://www.w3.org/1999/xlink" x="0px" y="0px"
	 viewBox="0 0 652 652" style="enable-background:new 0 0 652 652;" xml:space="preserve">
<style type="text/css">
	.st0{fill:#93186C;}
</style>
<g>
	<path class="st0" d="M77.3,266.8c-0.8,0-2.6,0.2-2.6,0.2c-17.2,2.3-38.6,14-48.1,34.9c-12.4,27.6-4.1,57.3,19,67.7
		c16.7,7.6,36,2.6,50.5-12.7c-0.2-0.3-0.7-0.8-0.9-1.3c-12.9,13.8-30.2,18.3-45.1,11.6C36,361,28.2,346.6,28.2,330.1
		c0-7.6,1.6-15.6,5.1-23.5c8.7-19.1,27.8-29.6,42-31.5c0,0,2.5-0.3,3.2-0.5C78.4,274.1,77.4,267.4,77.3,266.8 M51.6,365.4
		c14,6.3,30,1.9,42.1-11.3c-0.3-0.3-0.8-0.9-1-1.3c-10.5,11.8-24.5,15.8-36.6,10.3c-6.6-3-11.9-8.8-14.8-16.3
		c-1.6-4.1-2.3-8.7-2.3-13.4c0-6.4,1.4-13,4.2-19.5c6.9-15.2,22-24,33.9-25.9c0,0,2.7-0.3,3.3-0.5c-0.2-1.4-0.9-6.1-1.4-8.4
		c-0.6,0.1-3,0.6-3,0.6c-13,2.1-31.2,10.8-39.6,29.3c-3.3,7.3-4.9,14.9-4.9,22C31.6,346.2,38.8,359.6,51.6,365.4 M57.8,361.1
		c11.1,4.9,23.9,1.1,33.5-10.1c-0.2-0.3-0.8-0.9-1.1-1.4c-8,9.8-18.7,13.3-27.9,9.2c-8-3.7-12.5-12.1-12.5-22c0-5,1.1-10.3,3.4-15.6
		c5.5-12.1,16.9-19.2,25.4-20.4c0,0,3.2-0.6,3.9-0.6c-0.1-0.7-1.3-7.6-1.4-8.2c-0.6,0.1-3.5,0.7-3.5,0.7
		c-10.2,1.7-24.5,8.8-31.1,23.6c-2.8,6.1-4,12.2-4,18C42.5,346.4,48,356.7,57.8,361.1 M351.2,325.4c0-8.9,3.9-10.8,7.1-10.8
		c4.5,0,6.8,3.5,6.8,10.8v0.3h-13.9V325.4z M337.7,330.6c0,17.4,7.3,26.3,21.8,26.3c7.7,0,16.3-4.5,17.6-16.9h-12.4
		c-0.6,4.6-2.7,6.9-6.8,6.9c-6.3,0-6.9-6.5-6.9-12.7v-0.3h24c1.4,0,2.4-1,2.4-2.5c0-17.6-6.5-26.7-19.7-26.7
		C345.6,304.6,337.7,314.8,337.7,330.6 M594.4,325.4c0-8.9,3.9-10.8,7.1-10.8c4.5,0,6.8,3.5,6.8,10.8v0.3h-13.8V325.4z M580.8,330.6
		c0,17.4,7.4,26.3,22,26.3c7.7,0,16.1-4.5,17.5-16.9H608c-0.6,4.6-2.9,6.9-6.8,6.9c-6.3,0-6.9-6.5-6.9-12.7v-0.3h24
		c1.4,0,2.4-1,2.4-2.5c0-17.6-6.6-26.7-19.7-26.7C588.8,304.6,580.8,314.8,580.8,330.6 M320.2,288.5h-9.8v55.6
		c0,8.6,3.9,12.8,11.8,12.8c4,0,8.6-0.9,12-2.2c-0.2-1.6-1.5-8.6-1.5-8.6c-0.2-1.3-0.8-1.9-2.3-1.5c-1.3,0.2-2.3,0.3-3.5,0.3
		c-2.3,0-3.5-1.6-3.5-4.5v-25.3h11v-7.6c0-1.4-1-2.5-2.5-2.5h-8.5v-13.7c0-1.3-0.2-1.9-0.7-2.4C322.1,288.6,321.3,288.5,320.2,288.5
		 M398.2,311.2l-0.5,0.7l-1-4.1c-0.5-1.5-1.7-2.6-3.2-2.6h-8.1v48.5c0,1.3,1.1,2.4,2.5,2.4h10.4v-23.8c0-6.3,1.3-10.4,4-12.9
		c2.3-2.2,5.6-3.1,10.2-3v-9.3c0-1.1-0.7-2.5-2.6-2.5C404,304.6,401,307.3,398.2,311.2 M565.8,311.2l-0.5,0.7l-1-4.1
		c-0.3-1.5-1.7-2.6-3.1-2.6H553v48.5c0,1.3,1.1,2.4,2.5,2.4H566v-23.8c0-6.3,1.3-10.4,3.9-12.9c2.3-2.2,5.6-3.1,10.2-3v-9.3
		c0-1.1-0.7-2.5-2.6-2.5C571.6,304.6,568.7,307.2,565.8,311.2 M465.9,282.4h-10.4v71.3c0,1.3,1,2.4,2.4,2.4h10.5v-29.9
		c0-6.4,3.4-10.9,8.2-10.9c3.1,0,4.7,1.7,4.7,4.8v33.5c0,1.3,1.1,2.4,2.5,2.4h10.4v-38.7c0-7.8-4.9-12.8-12.6-12.8
		c-6.6,0-11,4-12.6,5.6l-0.7,0.8v-26.2C468.4,283.4,467.3,282.4,465.9,282.4 M430.6,346.5c-3.2,0-6.3-1.3-9.4-2.4l-2.4-0.9
		c-0.6-0.2-1-0.2-1.5,0c-0.6,0.3-1,0.9-1.4,1.7c0,0-2.3,7.3-2.4,8c4.1,1.6,12.1,4.1,17.7,4.1c12.8,0,17.4-8.1,17.4-15.8
		c0-7.8-5.6-12.1-11.2-15l-2.3-1.1c-3.7-1.9-6.6-3.3-6.6-6.4c0-2.3,1.4-4.5,4.6-4.5c2.9,0,5.3,1,7.2,1.8l1.6,0.6
		c1.6,0.7,2.5-1.1,2.9-1.8c0,0,2.2-6,2.4-6.5l-0.1-0.1c-4.6-1.8-8.8-3.7-15.1-3.7c-10,0-16.4,5.9-16.4,15.1c0,6.9,5,10.8,10.1,13.5
		l2.6,1.3c4,2.2,7.7,4,7.4,7.9C435.6,345,433.8,346.5,430.6,346.5 M298.7,305.2h-10.4v30.1c0,6.1-3.9,10.9-8.8,10.9
		c-3.2,0-5.3-1.9-5.3-4.9v-33.5c0-1.4-1-2.5-2.4-2.5h-10.5V344c0,7.7,5.3,12.9,13.2,12.9c5.4,0,10.2-2.3,14.2-6.4l0.5-0.5
		c0,0,0.9,3.8,0.9,3.9c0.2,0.9,0.8,2.2,2.6,2.2h8.6v-48.4C301.2,306.3,300,305.2,298.7,305.2 M225.8,311.8l-0.5,1l-0.3-1.1l-0.8-3.9
		c-0.3-1.5-1.7-2.6-3.1-2.6h-8v69.5c0,1.5,1.1,2.5,2.5,2.5h10.5v-26.4l0.7,0.9c2.9,3.4,6.5,5.3,11.1,5.3c4.3,0,8.2-2.3,10.4-4.5
		c4.1-4.2,6.2-11.1,6.2-21c0-23.9-9.7-26.8-17-26.8C232.3,304.6,227.4,308.3,225.8,311.8 M225.5,330.7c0-9.8,2.4-14.5,7.3-14.5
		c5.7,0,8,4.2,8,14.5c0,9.2-1.4,15.2-8,15.2C227.9,345.9,225.5,340.9,225.5,330.7 M177.4,311.2l-0.3,0.6l-0.3-0.7
		c-1.8-4.1-5.8-6.5-11.2-6.5c-4.5,0-9.7,2.6-13,6.4l-0.5,0.6l-0.9-4.1c-0.2-1-0.9-2.3-2.6-2.3h-8.6v48.5c0,1.3,1.1,2.4,2.4,2.4h10.5
		v-29.9c0-6.6,3.2-10.9,8-10.9c2.1,0,4.2,1.7,4.2,4.8v33.5c0,1.3,1,2.4,2.4,2.4h10.5v-29.9c0-6.6,3.2-10.9,8-10.9
		c2.1,0,4.2,1.7,4.2,4.8v33.5c0,1.3,1.1,2.4,2.4,2.4h10.5v-37.5c0-8.7-4.6-14-12.4-14C186.1,304.6,180.7,307.2,177.4,311.2
		 M89.8,330.6c0,16.9,7.5,26.3,21.2,26.3c13.4,0,21.1-9.6,21.1-26.3c0-16.2-7.9-26-21.1-26C97.7,304.6,89.8,314.3,89.8,330.6
		 M102.7,330.5c0-10.2,2.7-15.1,8.2-15.1c5.6,0,8.3,4.9,8.3,15.1c0,10.3-2.7,15.3-8.3,15.3C105.4,345.8,102.7,340.8,102.7,330.5
		 M501.7,330.3c0,23.7,9.6,26.4,16.8,26.4c6.1,0,11.2-2.2,13.8-6l0.6-0.8l0.6,3.4c0.3,1.8,1.1,2.6,2.6,2.6h8.8
		c-1.3-4.1-1-8.1-1-11.8v-36.6c0-1.4-1-2.5-2.4-2.5h-5.6c-1.5,0-2.7,1.1-3.1,2.5l-1,4l-0.5-0.6c-2.4-3-7.4-5.8-13.2-5.8
		c-4.3,0-8.1,2.2-10.3,4.4C503.8,313.8,501.7,320.5,501.7,330.3 M515.2,331c0-8.9,1.4-15,8-15c4.8,0,7.2,4.9,7.2,15
		c0,9.7-2.4,14.4-7.2,14.4C517.5,345.4,515.2,341.3,515.2,331"/>
</g>
</svg>
