<svg class="svg-icon" style="width: 1em; height: 1em;vertical-align: middle;fill: currentColor;overflow: hidden;" viewBox="0 0 1024 1024" version="1.1" xmlns="http://www.w3.org/2000/svg"><path d="M511.9 104.8c-225.5 0-408.4 182.8-408.4 408.4 0 225.5 182.8 408.4 408.4 408.4 225.5 0 408.4-182.8 408.4-408.4 0-225.5-182.8-408.4-408.4-408.4z m185.2 547.7c10.6 10.6 10.6 27.8 0 38.4l-7.5 7.5c-10.6 10.6-27.8 10.6-38.4 0L511.9 559.1 372.7 698.4c-10.6 10.6-27.8 10.6-38.4 0l-7.5-7.5c-10.6-10.6-10.6-27.8 0-38.4L466 513.2 326.8 374c-10.6-10.6-10.6-27.8 0-38.4l7.5-7.5c10.6-10.6 27.8-10.6 38.4 0L512 467.4 651.2 328c10.6-10.6 27.8-10.6 38.4 0l7.5 7.5c10.6 10.6 10.6 27.8 0 38.4L557.9 513.2l139.2 139.3z" fill="#3259CE" /></svg>