<svg class="svg-icon" style="width: 1em; height: 1em;vertical-align: middle;fill: currentColor;overflow: hidden;" viewBox="0 0 1024 1024" version="1.1" xmlns="http://www.w3.org/2000/svg"><path d="M512.8 98.2C284.1 98.2 98 284.3 98 513.1c0 23.9 2.6 48.2 6.5 71 0 0.1 0.2 0.1 0.3 0.2 1.7 5.8 6.8 10.1 13.1 10.1 7.6 0 13.8-6.2 13.8-13.8 0-0.5-0.2-0.9-0.3-1.3l0.2-0.1c-3.7-21.5-6-43.5-6-66C125.6 299.4 299 126 512.8 126S900 299.2 900 513.1 726.7 900.3 512.8 900.3c-142.9 0-267.4-77.6-334.5-192.8 0-0.1-0.1-0.1-0.1-0.2l-0.6-0.9c-2.3-4.3-6.8-7.4-12-7.4-7.6 0-13.8 6.2-13.8 13.8 0 3 1.2 5.6 2.8 7.9l-0.2 0.1c71.9 123.6 205.5 207.1 358.5 207.1 228.7 0 414.8-186.1 414.8-414.8S741.6 98.2 512.8 98.2z" fill="#3259CE" /><path d="M644.8 664.6L361.3 381.1c-5.4-5.4-5.4-14.2 0-19.6 5.4-5.4 14.2-5.4 19.6 0L664.4 645c5.4 5.4 5.4 14.2 0 19.6-5.4 5.4-14.2 5.4-19.6 0z" fill="#3259CE" /><path d="M664.4 381.1L380.9 664.6c-5.4 5.4-14.2 5.4-19.6 0-5.4-5.4-5.4-14.2 0-19.6l283.5-283.5c5.4-5.4 14.2-5.4 19.6 0 5.4 5.5 5.4 14.2 0 19.6z" fill="#3259CE" /></svg>