<?xml version="1.0" standalone="no"?>
<!DOCTYPE svg PUBLIC "-//W3C//DTD SVG 20010904//EN"
 "http://www.w3.org/TR/2001/REC-SVG-20010904/DTD/svg10.dtd">
<svg version="1.0" xmlns="http://www.w3.org/2000/svg"
 width="512.000000pt" height="512.000000pt" viewBox="0 0 512.000000 512.000000"
 preserveAspectRatio="xMidYMid meet">

<g transform="translate(0.000000,512.000000) scale(0.100000,-0.100000)"
fill="#93186c" stroke="none">
<path d="M337 5009 c-94 -22 -179 -96 -213 -185 -18 -48 -19 -103 -19 -1874 0
-1771 1 -1826 19 -1874 24 -63 86 -130 151 -164 l50 -27 672 -3 673 -3 0 -284
0 -285 -210 0 c-224 0 -267 -7 -289 -48 -14 -26 -14 -87 -1 -113 28 -51 -33
-49 1385 -49 1410 0 1367 -1 1394 48 14 26 14 88 0 114 -22 41 -65 48 -289 48
l-210 0 0 285 0 284 673 3 672 3 50 27 c65 34 127 101 151 164 18 48 19 103
19 1874 0 1775 -1 1826 -19 1875 -25 65 -94 137 -159 166 l-52 24 -2205 2
c-1265 0 -2221 -3 -2243 -8z m4444 -228 l29 -29 0 -1441 0 -1441 -516 0 -516
0 -83 55 c-83 55 -235 131 -310 155 -77 24 -195 92 -248 144 -78 74 -109 141
-115 242 l-4 82 66 78 c124 145 203 286 260 464 56 174 70 257 70 430 1 220
-33 352 -128 500 -102 157 -258 266 -461 322 -69 19 -105 22 -265 22 -160 0
-196 -3 -265 -22 -305 -84 -501 -286 -572 -590 -25 -106 -24 -352 1 -472 56
-264 153 -468 312 -654 l66 -78 -4 -87 c-4 -69 -10 -97 -32 -140 -55 -107
-174 -195 -346 -256 -111 -40 -247 -109 -315 -160 l-60 -45 -517 0 -518 0 0
1446 0 1446 29 29 29 29 2192 0 2192 0 29 -29z m-2094 -632 c342 -47 533 -266
535 -613 1 -411 -260 -867 -549 -956 -82 -25 -144 -25 -225 0 -414 128 -682
931 -438 1309 131 202 386 300 677 260z m-303 -1764 c106 -36 246 -35 353 0
42 14 77 24 78 23 1 -2 7 -28 13 -58 42 -194 228 -381 447 -450 22 -7 44 -16
50 -21 5 -5 -317 -9 -759 -9 -422 0 -765 4 -762 9 3 4 31 18 63 29 217 81 386
257 425 443 7 33 13 59 15 59 1 0 36 -11 77 -25z m2426 -971 c0 -259 -3 -283
-39 -311 -23 -18 -4399 -18 -4422 0 -36 28 -39 52 -39 311 l0 256 2250 0 2250
0 0 -256z m-1570 -819 l0 -285 -685 0 -685 0 0 285 0 285 685 0 685 0 0 -285z"/>
<path d="M1205 4618 c-49 -18 -83 -47 -112 -96 -28 -46 -28 -49 -28 -222 0
-96 3 -187 8 -202 10 -38 49 -60 100 -60 34 1 47 7 70 32 l27 30 0 159 0 159
164 4 c158 3 165 4 190 27 52 49 42 136 -19 165 -26 13 -68 16 -202 15 -92 0
-181 -5 -198 -11z"/>
<path d="M3535 4621 c-65 -27 -82 -118 -32 -168 27 -28 27 -28 192 -31 l164
-4 3 -164 c3 -161 3 -164 29 -189 31 -31 95 -36 134 -11 38 25 48 81 43 261
-3 153 -5 163 -31 207 -29 51 -63 78 -116 96 -39 14 -355 15 -386 3z"/>
<path d="M1113 2940 c-12 -5 -30 -21 -40 -37 -16 -24 -18 -50 -18 -203 0 -167
1 -177 25 -224 14 -28 42 -64 63 -80 l39 -31 202 -3 c192 -3 203 -2 229 18 32
26 44 79 27 121 -22 51 -51 59 -225 59 l-155 0 0 155 c0 98 -4 164 -12 180
-21 46 -82 66 -135 45z"/>
<path d="M3911 2937 c-44 -26 -50 -52 -51 -214 l0 -153 -155 0 c-174 0 -203
-8 -225 -59 -16 -40 -5 -97 25 -127 24 -24 27 -24 215 -24 216 0 235 4 291 67
48 52 59 107 59 276 0 142 -9 194 -39 221 -26 23 -90 30 -120 13z"/>
</g>
</svg>
