<?xml version="1.0" standalone="no"?>
<!DOCTYPE svg PUBLIC "-//W3C//DTD SVG 20010904//EN"
 "http://www.w3.org/TR/2001/REC-SVG-20010904/DTD/svg10.dtd">
<svg version="1.0" xmlns="http://www.w3.org/2000/svg"
 width="500.000000pt" height="500.000000pt" viewBox="0 0 500.000000 500.000000"
 preserveAspectRatio="xMidYMid meet">

<g transform="translate(0.000000,500.000000) scale(0.100000,-0.100000)"
fill="#E0474C" stroke="none">
<path d="M2365 4981 c-246 -8 -332 -21 -541 -81 -423 -123 -753 -314 -1063
-614 -379 -368 -607 -796 -712 -1337 -27 -144 -32 -191 -36 -382 -11 -448 75
-818 283 -1229 228 -448 632 -845 1085 -1066 413 -201 826 -287 1264 -262 354
21 631 96 984 267 353 172 688 465 934 819 109 156 268 495 331 704 31 106 50
189 73 322 26 147 26 620 0 758 -88 480 -261 864 -544 1207 -387 471 -917 774
-1533 877 -127 21 -250 25 -525 17z m375 -381 c557 -69 1029 -325 1388 -755
424 -506 582 -1187 427 -1840 -160 -676 -675 -1253 -1328 -1489 -711 -258
-1502 -121 -2076 359 -42 34 -119 107 -171 161 -390 403 -590 899 -590 1461 0
433 111 812 337 1151 274 413 658 710 1106 857 118 39 334 86 447 98 80 9 382
6 460 -3z"/>
<path d="M2460 3731 c-53 -17 -91 -43 -118 -83 l-27 -42 -3 -675 -3 -675 25
-50 c69 -141 257 -144 329 -6 l27 53 -2 671 c-3 659 -3 672 -24 711 -35 67
-139 115 -204 96z"/>
<path d="M2420 1835 c-146 -45 -216 -221 -144 -362 95 -186 344 -188 448 -4
78 139 4 321 -148 366 -60 18 -97 18 -156 0z"/>
</g>
</svg>
