<?xml version="1.0" standalone="yes"?>
<svg xmlns="http://www.w3.org/2000/svg" width="512" height="512">
<path style="fill:#010101; stroke:none;" d="M0 0L0 512L512 512L512 0L0 0z"/>
<path style="fill:#ffff01; stroke:none;" d="M237 27L238 28L237 27z"/>
<path style="fill:#ffc149; stroke:none;" d="M238 27.4244C191.959 33.4724 150.028 47.0111 113 76.2107C90.1077 94.263 70.1572 117.335 56.2307 143C-3.19867 252.521 32.596 395.124 144 456.306C162.534 466.484 182.309 474.594 203 479.207C229.09 485.023 256.418 486.936 283 483.715C317.405 479.544 352.188 468.152 381 448.576C449.261 402.195 490.61 324.232 484.91 241C476.61 119.787 363.602 10.925 238 27.4244z"/>
<path style="fill:#ffff01; stroke:none;" d="M274 27L275 28L274 27z"/>
<path style="fill:#ffc43c; stroke:none;" d="M215 30L216 31L215 30M205 32L206 33L205 32M318 35L319 36L318 35M322 36L323 37L322 36M186 37L187 38L186 37M325 37L326 38L325 37M167 44L168 45L167 44z"/>
<path style="fill:#ffff81; stroke:none;" d="M160 47L161 48L160 47z"/>
<path style="fill:#ffc43c; stroke:none;" d="M158 48L159 49L158 48M353 48L354 49L353 48M152 51L153 52L152 51M359 51L360 52L359 51M365 54L366 55L365 54z"/>
<path style="fill:#ffff01; stroke:none;" d="M367 55L368 56L367 55z"/>
<path style="fill:#ffc43c; stroke:none;" d="M141 57L142 58L141 57M139 58L140 59L139 58z"/>
<path style="fill:#ffff01; stroke:none;" d="M137 59L138 60L137 59z"/>
<path style="fill:#ffc43c; stroke:none;" d="M377 61L378 62L377 61M380 63L381 64L380 63M389 69L390 70L389 69M397 75L398 76L397 75M402 79L403 80L402 79M412 88L413 89L412 88z"/>
<path style="fill:#010101; stroke:none;" d="M250 92.4391C233.271 95.0733 218.634 108.101 215.468 125C212.407 141.332 216.272 160.624 217.83 177C220.394 203.942 221.266 231.05 223.83 258C225.124 271.598 225.976 285.368 226.91 299C227.219 303.505 225.954 310.897 229.589 314.397C232.405 317.108 238.437 316 242 316C253.87 316 267.271 317.755 278.981 315.852C285.746 314.752 284.804 306.186 285.039 301C285.687 286.74 286.817 272.212 288.17 258C290.734 231.05 291.606 203.942 294.17 177C295.728 160.624 299.593 141.332 296.532 125C292.596 103.989 270.982 89.1351 250 92.4391z"/>
<path style="fill:#ffc43c; stroke:none;" d="M262 92L263 93L262 92z"/>
<path style="fill:#ffff81; stroke:none;" d="M272 95L273 96L272 95M237 96L238 97L237 96M274 96L275 97L274 96z"/>
<path style="fill:#ffc43c; stroke:none;" d="M90 97L91 98L90 97M235 97L236 98L235 97M421 97L422 98L421 97M87 100L88 101L87 100M229 101L230 102L229 101M284 103L285 104L284 103M286 105L287 106L286 105M287 106L288 107L287 106M430 107L431 108L430 107M79 109L80 110L79 109z"/>
<path style="fill:#ffff01; stroke:none;" d="M217 118L218 119L217 118M294 118L295 119L294 118z"/>
<path style="fill:#ffc43c; stroke:none;" d="M65 128L66 129L65 128M63 131L64 132L63 131M214 132L215 133L214 132M450 134L451 135L450 134M453 139L454 140L453 139M54 146L55 147L54 146M215.333 147.667L215.667 148.333L215.333 147.667M296.333 147.667L296.667 148.333L296.333 147.667M51 152L52 153L51 152M461 154L462 155L461 154M469 172L470 173L469 172M217.333 174.667L217.667 175.333L217.333 174.667M294 174L295 175L294 174M473 183L474 184L473 183M37 186L38 187L37 186M474 186L475 187L474 186M33 200L34 201L33 200M219.333 201.667L219.667 202.333L219.333 201.667M292 201L293 202L292 201z"/>
<path style="fill:#ffff81; stroke:none;" d="M30 214L31 215L30 214z"/>
<path style="fill:#ffff01; stroke:none;" d="M481 214L482 215L481 214z"/>
<path style="fill:#ffc43c; stroke:none;" d="M482 220L483 221L482 220z"/>
<path style="fill:#ffff01; stroke:none;" d="M28 227L29 228L28 227z"/>
<path style="fill:#ffc43c; stroke:none;" d="M221.333 228.667L221.667 229.333L221.333 228.667M290 228L291 229L290 228z"/>
<path style="fill:#ffff01; stroke:none;" d="M484 237L485 238L484 237z"/>
<path style="fill:#ffc43c; stroke:none;" d="M223.333 255.667L223.667 256.333L223.333 255.667M288 255L289 256L288 255z"/>
<path style="fill:#ffff81; stroke:none;" d="M27 274L28 275L27 274z"/>
<path style="fill:#ffff01; stroke:none;" d="M484 274L485 275L484 274z"/>
<path style="fill:#ffc43c; stroke:none;" d="M225.333 282.667L225.667 283.333L225.333 282.667M286 282L287 283L286 282z"/>
<path style="fill:#ffff01; stroke:none;" d="M28 284L29 285L28 284z"/>
<path style="fill:#ffc43c; stroke:none;" d="M482 291L483 292L482 291z"/>
<path style="fill:#ffff01; stroke:none;" d="M226 295L227 296L226 295z"/>
<path style="fill:#ffc43c; stroke:none;" d="M285 296L286 297L285 296z"/>
<path style="fill:#ffff81; stroke:none;" d="M30 297L31 298L30 297z"/>
<path style="fill:#ffff01; stroke:none;" d="M481 297L482 298L481 297z"/>
<path style="fill:#ffc43c; stroke:none;" d="M32 306L33 307L32 306M227.333 309.667L227.667 310.333L227.333 309.667M284 309L285 310L284 309M33 311L34 312L33 311z"/>
<path style="fill:#ffff81; stroke:none;" d="M475 322L476 323L475 322z"/>
<path style="fill:#ffc43c; stroke:none;" d="M37 325L38 326L37 325M38 328L39 329L38 328M473 328L474 329L473 328M472 331L473 332L472 331M469 339L470 340L469 339M467 344L468 345L467 344M466 346L467 347L466 346z"/>
<path style="fill:#ffff01; stroke:none;" d="M251 352L252 353L251 352z"/>
<path style="fill:#010101; stroke:none;" d="M252 352.439C207.054 359.445 217.545 427.098 262 419.674C304.16 412.634 293.84 345.918 252 352.439z"/>
<path style="fill:#ffc43c; stroke:none;" d="M463 353L464 354L463 353M268 354L269 355L268 354z"/>
<path style="fill:#ffff81; stroke:none;" d="M241 355L242 356L241 355M275 358L276 359L275 358z"/>
<path style="fill:#ffc43c; stroke:none;" d="M232 361L233 362L232 361M230 363L231 364L230 363M458 363L459 364L458 363M54 365L55 366L54 365M457 365L458 366L457 365z"/>
<path style="fill:#ffff01; stroke:none;" d="M283 366L284 367L283 366z"/>
<path style="fill:#ffc43c; stroke:none;" d="M227 367L228 368L227 367M57 370L58 371L57 370z"/>
<path style="fill:#ffff01; stroke:none;" d="M286 371L287 372L286 371z"/>
<path style="fill:#ffc43c; stroke:none;" d="M58 372L59 373L58 372M287 373L288 374L287 373z"/>
<path style="fill:#ffff81; stroke:none;" d="M288 376L289 377L288 376z"/>
<path style="fill:#ffc43c; stroke:none;" d="M446 383L447 384L446 383M444 386L445 387L444 386z"/>
<path style="fill:#ffff81; stroke:none;" d="M289 391L290 392L289 391z"/>
<path style="fill:#ffff01; stroke:none;" d="M222 392L223 393L222 392z"/>
<path style="fill:#ffc43c; stroke:none;" d="M439 393L440 394L439 393M76 398L77 399L76 398z"/>
<path style="fill:#ffff81; stroke:none;" d="M284 404L285 405L284 404z"/>
<path style="fill:#ffff01; stroke:none;" d="M229 407L230 408L229 407z"/>
<path style="fill:#ffff81; stroke:none;" d="M281 408L282 409L281 408M426 409L427 410L426 409z"/>
<path style="fill:#ffff01; stroke:none;" d="M278 411L279 412L278 411z"/>
<path style="fill:#ffc43c; stroke:none;" d="M424 411L425 412L424 411z"/>
<path style="fill:#ffff01; stroke:none;" d="M234 412L235 413L234 412z"/>
<path style="fill:#ffc43c; stroke:none;" d="M277 412L278 413L277 412M423 412L424 413L423 412M271 416L272 417L271 416z"/>
<path style="fill:#ffff01; stroke:none;" d="M266 418L267 419L266 418z"/>
<path style="fill:#ffc43c; stroke:none;" d="M263 419L264 420L263 419M415 420L416 421L415 420M414 421L415 422L414 421M412 423L413 424L412 423M100 424L101 425L100 424z"/>
<path style="fill:#ffff01; stroke:none;" d="M102 426L103 427L102 426z"/>
<path style="fill:#ffff81; stroke:none;" d="M409 426L410 427L409 426z"/>
<path style="fill:#ffc43c; stroke:none;" d="M107 430L108 431L107 430M404 430L405 431L404 430M403 431L404 432L403 431M402 432L403 433L402 432M393 439L394 440L393 439M128 446L129 447L128 446M383 446L384 447L383 446M131 448L132 449L131 448M146 457L147 458L146 457M365 457L366 458L365 457M156 462L157 463L156 462z"/>
<path style="fill:#ffff81; stroke:none;" d="M160 464L161 465L160 464M334 471L335 472L334 471z"/>
<path style="fill:#ffc43c; stroke:none;" d="M331 472L332 473L331 472M328 473L329 474L328 473M186 474L187 475L186 474z"/>
<path style="fill:#ffff81; stroke:none;" d="M189 475L190 476L189 475z"/>
<path style="fill:#ffc43c; stroke:none;" d="M311 478L312 479L311 478M215 481L216 482L215 481z"/>
<path style="fill:#ffff81; stroke:none;" d="M297 481L298 482L297 481z"/>
<path style="fill:#ffc43c; stroke:none;" d="M220 482L221 483L220 482M291 482L292 483L291 482z"/>
</svg>
