<?xml version="1.0" standalone="no"?>
<!DOCTYPE svg PUBLIC "-//W3C//DTD SVG 20010904//EN"
 "http://www.w3.org/TR/2001/REC-SVG-20010904/DTD/svg10.dtd">
<svg version="1.0" xmlns="http://www.w3.org/2000/svg"
 width="512.000000pt" height="512.000000pt" viewBox="0 0 512.000000 512.000000"
 preserveAspectRatio="xMidYMid meet">

<g transform="translate(0.000000,512.000000) scale(0.100000,-0.100000)"
fill="#91c60f" stroke="none">
<path d="M2365 5114 c-362 -37 -633 -112 -930 -258 -261 -128 -447 -260 -659
-465 -218 -213 -377 -432 -512 -706 -126 -258 -203 -511 -246 -810 -17 -118
-17 -512 0 -630 43 -301 120 -553 247 -810 254 -515 653 -916 1160 -1165 197
-97 316 -142 510 -190 493 -124 989 -102 1475 65 141 48 421 188 550 274 306
203 577 480 774 791 26 41 80 141 120 221 493 991 287 2184 -510 2959 -210
205 -394 334 -659 466 -247 122 -495 199 -769 240 -97 14 -468 26 -551 18z
m550 -343 c628 -106 1158 -449 1511 -977 179 -267 296 -573 351 -909 24 -153
24 -497 0 -650 -108 -668 -474 -1222 -1042 -1580 -243 -153 -537 -261 -850
-312 -154 -24 -497 -24 -650 1 -648 105 -1184 447 -1541 982 -179 267 -296
573 -351 909 -24 154 -24 497 0 650 81 497 290 908 637 1255 379 380 861 605
1400 654 108 10 418 -4 535 -23z"/>
<path d="M3599 3441 c-24 -16 -352 -338 -729 -715 l-685 -686 -325 325 c-327
326 -362 355 -428 355 -44 0 -112 -41 -133 -80 -23 -42 -24 -111 -4 -154 23
-49 782 -802 827 -821 47 -19 79 -19 126 0 45 19 1553 1522 1577 1571 36 76 9
169 -60 209 -57 34 -109 33 -166 -4z"/>
</g>
</svg>
