<?xml version="1.0" standalone="no"?>
<!DOCTYPE svg PUBLIC "-//W3C//DTD SVG 20010904//EN"
 "http://www.w3.org/TR/2001/REC-SVG-20010904/DTD/svg10.dtd">
<svg version="1.0" xmlns="http://www.w3.org/2000/svg"
 width="512.000000pt" height="512.000000pt" viewBox="0 0 512.000000 512.000000"
 preserveAspectRatio="xMidYMid meet">

<g transform="translate(0.000000,512.000000) scale(0.100000,-0.100000)"
fill="#93186c" stroke="none">
<path d="M2384 5110 c-935 -63 -1768 -644 -2155 -1502 -223 -495 -282 -1072
-163 -1608 213 -957 977 -1721 1934 -1934 361 -80 760 -80 1117 0 963 215
1724 975 1937 1934 80 362 80 759 0 1120 -107 478 -346 907 -703 1260 -439
435 -1004 687 -1631 730 -158 11 -173 11 -336 0z m239 -884 c18 -8 219 -202
464 -447 400 -402 432 -437 438 -475 17 -106 -63 -204 -166 -204 -66 0 -102
29 -366 293 l-263 261 0 -851 c0 -576 -3 -861 -11 -880 -40 -108 -181 -145
-266 -70 -66 58 -63 11 -63 949 l0 852 -262 -261 c-265 -264 -301 -293 -368
-293 -71 0 -153 66 -166 135 -16 89 -27 75 439 544 238 238 446 439 462 447
39 17 88 17 128 0z m-1410 -2080 c39 -16 82 -61 96 -99 7 -18 11 -140 11 -328
l0 -299 1240 0 1240 0 0 302 c0 281 1 305 20 342 67 137 267 117 310 -32 8
-25 10 -148 8 -367 l-3 -330 -33 -67 c-37 -76 -82 -120 -162 -157 l-55 -26
-1325 0 -1325 0 -55 26 c-80 37 -125 81 -162 157 l-33 67 -3 330 c-2 214 0
343 7 366 15 51 48 88 95 110 49 22 86 24 129 5z"/>
</g>
</svg>
