<?xml version="1.0" standalone="no"?>
<!DOCTYPE svg PUBLIC "-//W3C//DTD SVG 20010904//EN"
 "http://www.w3.org/TR/2001/REC-SVG-20010904/DTD/svg10.dtd">
<svg version="1.0" xmlns="http://www.w3.org/2000/svg"
 width="512.000000pt" height="512.000000pt" viewBox="0 0 512.000000 512.000000"
 preserveAspectRatio="xMidYMid meet">

<g transform="translate(0.000000,512.000000) scale(0.100000,-0.100000)"
fill="#93186c" stroke="none">
<path d="M413 5106 c-191 -47 -353 -209 -398 -397 -13 -56 -15 -290 -15 -1829
0 -1945 -3 -1829 62 -1954 48 -90 147 -185 238 -228 41 -20 99 -41 128 -47 36
-7 307 -11 838 -11 715 0 788 1 814 17 55 32 67 112 26 160 l-24 28 -809 5
-808 5 -67 33 c-76 37 -120 82 -157 162 l-26 55 0 1775 0 1775 26 55 c37 80
81 125 157 162 l67 33 1350 0 1350 0 56 -26 c69 -33 127 -89 160 -155 l24 -49
5 -705 c4 -540 8 -710 18 -727 29 -52 104 -70 151 -37 51 36 51 34 51 736 0
379 -5 682 -10 723 -13 86 -71 211 -128 276 -54 61 -134 114 -218 147 l-69 27
-1370 2 c-1082 1 -1381 -1 -1422 -11z"/>
<path d="M1700 4464 c-116 -31 -214 -115 -271 -229 -32 -66 -34 -75 -34 -180
0 -103 2 -114 32 -177 44 -94 109 -160 202 -206 73 -36 78 -37 186 -37 106 0
113 2 180 34 264 130 325 463 124 676 -109 115 -267 160 -419 119z m168 -206
c66 -16 135 -87 151 -154 24 -98 -20 -193 -110 -238 -88 -43 -176 -30 -244 39
-69 68 -82 156 -39 244 28 56 79 98 136 111 47 11 54 11 106 -2z"/>
<path d="M1360 3396 c-147 -42 -266 -137 -335 -267 -54 -102 -67 -177 -63
-355 3 -145 4 -154 27 -178 48 -51 142 -40 170 20 6 14 11 79 11 149 0 196 23
270 112 352 85 77 91 78 538 78 l395 0 57 -28 c62 -30 115 -83 150 -149 20
-38 23 -62 28 -213 3 -109 10 -178 18 -192 15 -27 62 -53 94 -53 39 0 85 35
98 76 20 59 7 321 -19 405 -54 171 -200 309 -376 354 -79 20 -833 21 -905 1z"/>
<path d="M3510 2756 c-607 -108 -1065 -580 -1151 -1185 -15 -106 -7 -361 15
-461 58 -265 179 -492 367 -685 201 -207 431 -334 717 -397 145 -32 407 -32
551 0 285 64 502 182 702 381 199 200 317 417 381 702 32 144 32 406 0 551
-30 137 -66 237 -127 356 -74 143 -151 245 -270 361 -191 186 -415 307 -680
366 -97 22 -405 29 -505 11z m480 -225 c145 -33 262 -83 395 -169 99 -64 278
-248 343 -354 371 -601 139 -1380 -502 -1684 -372 -176 -805 -139 -1161 99
-83 55 -252 227 -307 312 -230 355 -261 777 -83 1152 165 348 493 596 873 658
115 19 328 12 442 -14z"/>
<path d="M4218 1909 c-9 -5 -171 -185 -359 -400 l-342 -391 -171 170 c-94 93
-182 177 -196 186 -13 9 -42 16 -63 16 -77 0 -122 -84 -83 -158 8 -15 115
-127 238 -248 241 -240 257 -250 320 -219 21 10 178 183 421 461 374 429 387
446 387 485 0 77 -90 135 -152 98z"/>
<path d="M693 2118 c-57 -28 -67 -122 -17 -169 l26 -24 671 -3 c608 -3 675 -1
703 13 61 32 74 117 25 166 l-29 29 -679 -1 c-448 0 -685 -4 -700 -11z"/>
<path d="M693 1478 c-57 -28 -67 -122 -17 -169 l26 -24 578 0 578 0 26 24 c51
48 40 142 -20 170 -33 15 -1139 14 -1171 -1z"/>
</g>
</svg>
