<?xml version="1.0" standalone="no"?>
<!DOCTYPE svg PUBLIC "-//W3C//DTD SVG 20010904//EN"
 "http://www.w3.org/TR/2001/REC-SVG-20010904/DTD/svg10.dtd">
<svg version="1.0" xmlns="http://www.w3.org/2000/svg"
 width="820.000000pt" height="860.000000pt" viewBox="0 0 820.000000 860.000000"
 preserveAspectRatio="xMidYMid meet">

<g transform="translate(0.000000,860.000000) scale(0.100000,-0.100000)"
fill="#E0474C" stroke="none">
<path d="M3775 8174 c-757 -63 -1463 -331 -2064 -782 -1172 -880 -1763 -2303
-1560 -3762 195 -1402 1157 -2625 2474 -3143 435 -171 788 -247 1288 -278 550
-33 1150 68 1687 283 978 393 1792 1199 2193 2174 181 439 283 913 302 1404
17 429 -51 920 -187 1340 -152 471 -382 898 -696 1292 -127 159 -424 460 -577
584 -535 433 -1166 725 -1803 833 -196 34 -250 40 -442 56 -218 18 -395 17
-615 -1z m473 -1346 c72 -13 196 -77 260 -134 110 -96 191 -246 226 -416 33
-160 18 -502 -39 -879 -77 -509 -340 -1585 -423 -1733 -85 -150 -250 -149
-335 2 -64 115 -265 891 -363 1406 -75 393 -108 678 -108 946 -1 182 2 215 22
295 74 292 287 496 546 523 77 9 132 6 214 -10z m-15 -4093 c251 -53 410 -286
393 -575 -3 -52 -12 -116 -20 -142 -74 -234 -253 -369 -491 -369 -108 -1 -169
12 -253 53 -162 80 -268 253 -279 458 -21 389 279 654 650 575z"/>
</g>
</svg>
