<?xml version="1.0" standalone="no"?>
<!DOCTYPE svg>
<svg version="1.0" xmlns="http://www.w3.org/2000/svg"
 width="512.000000pt" height="512.000000pt" viewBox="0 0 512.000000 512.000000"
 preserveAspectRatio="xMidYMid meet">

<g transform="translate(0.000000,512.000000) scale(0.100000,-0.100000)"
fill="#E0474C" stroke="none">
<path d="M2350 5110 c-396 -36 -790 -164 -1115 -362 -343 -209 -661 -528 -865
-868 -177 -294 -294 -626 -346 -985 -24 -164 -24 -504 0 -670 51 -357 173
-703 348 -990 209 -343 528 -661 868 -865 294 -177 626 -294 985 -346 164 -24
504 -24 670 0 393 57 760 194 1075 404 620 413 1018 1047 1126 1797 24 165 24
505 0 670 -80 556 -317 1045 -696 1439 -394 409 -910 673 -1474 757 -151 22
-438 32 -576 19z m525 -574 c427 -75 791 -263 1090 -561 310 -308 494 -671
571 -1120 24 -138 24 -452 0 -590 -77 -449 -261 -812 -571 -1120 -300 -300
-668 -489 -1095 -562 -123 -21 -384 -28 -515 -14 -458 49 -885 253 -1209 576
-312 313 -506 699 -570 1136 -21 140 -21 418 0 558 95 655 504 1216 1104 1516
174 87 415 162 595 184 50 6 101 13 115 15 51 9 408 -4 485 -18z"/>
</g>
</svg>
