<?xml version="1.0" standalone="no"?>
<!DOCTYPE svg PUBLIC "-//W3C//DTD SVG 20010904//EN"
 "http://www.w3.org/TR/2001/REC-SVG-20010904/DTD/svg10.dtd">
<svg version="1.0" xmlns="http://www.w3.org/2000/svg"
 width="295.000000pt" height="175.000000pt" viewBox="0 0 295.000000 175.000000"
 preserveAspectRatio="xMidYMid meet">

<g transform="translate(0.000000,175.000000) scale(0.100000,-0.100000)"
fill="#ffffff" stroke="none">
<path d="M1747 1676 c-293 -162 -651 -504 -936 -893 -53 -73 -99 -132 -102
-133 -3 0 -47 62 -97 138 -113 170 -166 230 -228 262 -60 30 -141 33 -197 6
-39 -19 -137 -102 -137 -116 0 -4 20 -5 44 -3 57 7 104 -16 159 -77 72 -80
373 -625 432 -783 10 -26 21 -44 25 -40 4 4 22 42 40 83 55 128 203 418 290
570 239 416 501 755 765 988 32 28 55 52 49 52 -5 0 -53 -24 -107 -54z"/>
<path d="M1667 1299 c-55 -29 -79 -73 -74 -132 5 -56 32 -90 92 -118 54 -25
101 -24 155 4 154 77 95 268 -82 267 -33 -1 -67 -8 -91 -21z"/>
<path d="M2091 1166 c-8 -9 -10 -148 -9 -497 l3 -484 420 0 420 0 3 87 3 87
-33 6 c-18 3 -149 5 -291 3 -300 -3 -270 -19 -265 132 l3 95 255 5 c140 3 256
7 258 8 1 1 1 41 0 90 l-3 87 -255 5 -255 5 -3 93 c-1 50 -1 93 0 94 2 1 134
5 293 8 l290 5 3 84 c2 61 -1 87 -10 92 -7 5 -194 9 -414 9 -327 0 -404 -3
-413 -14z"/>
<path d="M1402 1130 c-13 -17 -20 -35 -16 -41 4 -7 3 -9 -4 -5 -11 6 -52 -43
-52 -63 0 -6 -4 -11 -8 -11 -22 0 -125 -218 -138 -296 -11 -61 -15 -371 -7
-454 l8 -75 121 -3 c119 -3 122 -2 128 20 8 33 7 958 -1 957 -5 0 -18 -13 -31
-29z"/>
<path d="M1632 553 l3 -368 125 0 125 0 3 363 2 362 -24 0 c-14 0 -28 -5 -31
-10 -4 -6 -10 -8 -14 -6 -3 3 -40 5 -81 7 -41 1 -83 6 -93 11 -16 8 -17 -10
-15 -359z"/>
<path d="M42 850 l-22 -9 2 -328 3 -328 119 -3 c89 -2 121 1 128 10 4 7 8 133
8 280 l0 266 -27 22 c-16 12 -21 18 -13 14 8 -4 2 7 -14 24 -17 18 -35 32 -42
32 -7 0 -14 5 -16 11 -5 15 -97 22 -126 9z"/>
</g>
</svg>
